<svg xmlns="http://www.w3.org/2000/svg"><g id="hashtag_landing_page_empty_dark_mode" xmlns="http://www.w3.org/2000/svg" viewBox="0 0 200 200"><defs><clipPath id="a"><path class="cls-1" d="M0 0h200v200H0z"></path></clipPath><clipPath id="b"><path class="cls-1" d="M59.52 88.34L70.3 111.4l39.1-14.29-17.05-34.09z"></path></clipPath><style>
          .cls-1{fill:none}.cls-3{clip-path:url("#a")}.cls-4{fill:#005cff}.cls-5{fill:#00e5be}.cls-6{fill:#6ea2ff}
        </style></defs><path fill="currentColor" d="M33.72 108.2l82.38-63.48 26.5 40.27L40.93 122.1z"></path><g class="cls-3" clip-path="url(#a)"><path class="cls-4" d="M29.84 115a7.83 7.83 0 117.83 7.83 7.82 7.82 0 01-7.83-7.83M107 63c0-13.22 11.46-23.95 25.6-23.95s25.59 10.7 25.59 23.95-11.46 24-25.59 24S107 76.28 107 63"></path><path class="cls-5" d="M124.1 63a8.56 8.56 0 118.55 8 8.29 8.29 0 01-8.55-8"></path><path class="cls-5" d="M132.6 81.61c-11 0-19.89-8.36-19.89-18.64s8.92-18.64 19.89-18.64S152.49 52.7 152.49 63s-8.93 18.64-19.89 18.64m0-36.28c-10.41 0-18.89 7.92-18.89 17.64s8.48 17.64 18.89 17.64S151.49 72.7 151.49 63s-8.48-17.64-18.89-17.64M128.7 166.1l-37.92-60.3-29.01 60.3-.9-.5 29.8-61.9 38.93 61.9z"></path><path class="cls-5" d="M84.8549784 165.83839492l5.40121727-61.1218165.99611826.08802505-5.40121727 61.1218165z"></path><path class="cls-6" d="M59.52 88.34L70.3 111.4l39.1-14.29-17.05-34.09z"></path></g><g class="cls-3" clip-path="url(#a)"><path class="cls-6" d="M177.8 91.43c1 8.51-3.95 17.36-11.59 21.17a15 15 0 01-1.35 5.46c-2.31 5.06-6.74 8.17-10.05 9.89a31.58 31.58 0 01-27.51.5l.29-.62a30.89 30.89 0 0026.9-.49c3.21-1.67 7.51-4.68 9.74-9.56a14.35 14.35 0 001.27-4.84c-.48.21-1 .41-1.47.58-3.71 1.29-7.26 1.24-10-.16h-.08c-3.27-1.72-5-5.6-3.92-8.69a7 7 0 016.73-4.32 9.41 9.41 0 017.1 4 12.54 12.54 0 012.36 7.53 20.83 20.83 0 0010.89-20.3zm-12.26 20.73a12 12 0 00-2.22-7.47 8.68 8.68 0 00-6.57-3.69 6.27 6.27 0 00-6.06 3.85c-.87 2.43.25 6.1 3.58 7.85h.08c3.46 1.76 7.41.83 9.45.12.6-.21 1.18-.45 1.74-.71M55.72 65.57l-.34-.74-6.37 2.94-2.17-6.33-.77.26 2.2 6.41-5.02 2.31.34.73 4.95-2.27 1.83 5.31.76-.26-1.86-5.4z"></path><path class="cls-4" d="M31.32 48.18A4.21 4.21 0 1128 43.24a4.2 4.2 0 013.32 4.94"></path><path class="cls-5" d="M77.91 31.28L62 29.76l7.36 15.59zM29.84 165.4h114v1h-114zM148.9 165.4h5.87v1h-5.87zM159.4 165.4h17.84v1H159.4z"></path></g></g></svg>