<svg xmlns="http://www.w3.org/2000/svg"><g id="artwork" fill="none" fill-rule="evenodd" viewBox="0 0 140 140"><circle fill="#EEE" fill-rule="nonzero" cx="70.44" cy="70.44" r="59.77"></circle><mask id="b" fill="#fff"><path d="M.24.24v70.2h10.43c0 33 26.76 59.77 59.77 59.77 33 0 59.77-26.7 59.77-59.7h9.7V.3H.3z"></path></mask><g mask="url(#b)"><path d="M115.6 109.04H79.48v21.76l29.15-.83c-.2 0 6.97-20.93 6.97-20.93z" fill="#2F82FF" fill-rule="nonzero"></path><path d="M85.77 34.3c-19.5-.35-16.96 14.5-16.96 14.5s-.1 25.85 14.9 28.32c3.9.04 5.3-5.34 5.3-5.34l-2.2 13.24L83 109.7s17.9 5.33 33.45 1.08c.15-12.1 3.23-37.16 3.08-43.4 3.24 3.68 9.1 24.97 11.1 51.1 5.8 1.28 9.3 0 9.3 0s-.38-41.27-16.34-63.4c-4.7-6.86-16.7-6.86-16.7-6.86-7-.98-8.9-.8-16 .17-7.1.9-6.6 9.4-6.6 9.4s1 5.5-1.4 10.1c-8.1-5-7.1-20.5-7.1-20.5s.4-5.6 8.1-6.9c2.2-1.4 3.7-4.7 1.9-6.4z" fill="#FF534F" fill-rule="nonzero"></path><path d="M82.9 109.7s17.9 5.33 33.47 1.08" stroke="#D90A17" stroke-width=".62" stroke-linecap="round" stroke-linejoin="round"></path><g transform="translate(68.563 34.076)"><mask id="d" fill="#fff"><path d="M17.3.23C-2.2-.13.26 14.73.26 14.73s-.1 25.85 14.83 28.3c3.9.06 5.2-5.33 5.2-5.33l-2.2 13.24-4.6 31.26s17.9 5.3 33.4 1.02c.1-12.1 4-43.73 3.9-49.96 3.2 3.7 9 24.97 11 51.1 5.8 1.27 9.3 0 9.3 0S70.9 43.12 54.9 21c-4.7-6.87-16.7-6.87-16.7-6.87-7-.98-8.9-.8-16 .18-7.1 1-6.6 9.5-6.6 9.5s1 5.5-1.4 10.2c-8.1-5-7.1-20.5-7.1-20.5s.5-5.6 8.1-6.8c2.3-1.3 3.9-4.7 2-6.3z"></path></mask><path d="M14.54.37C12.76 3 13.92 6.8 13.92 6.8" stroke="#D90A17" stroke-width=".5" stroke-linecap="round" stroke-linejoin="round" mask="url(#d)"></path></g><path d="M90.3 62.37l-1.52 9.72 1.5-9.8z" stroke="#D90A17" stroke-width=".62" stroke-linecap="round" stroke-linejoin="round"></path><path d="M101.43 62.16c10.02 1.76 10.2-9.2 10.2-9.2l3.2-22.6L97.5 28l-3.25 24.48s-1.84 8.26 7.18 9.68z" fill="#4620AE" fill-rule="nonzero"></path><path d="M112.47 41.4s.72 1.36 1.34 1.36c.7 0 1.1-.7 1.1-.7s.9 1.8 1.6-.7c2.5.6 2.1-2.58 2.1-2.58s3.2-1.34 0-6.1c2.1-2.9-.7-4.17-.7-4.17s2.5-3-2.2-4c-.3-3.5-4.9-2.6-4.9-2.6s.1-3.1-4.4-1.5c-1.7-1.6-2.6-2.7-6.3.3-4.8-.2-3.2 2.7-4.9 3.6-3.8-1-2 3.7-2 3.7s-4.04 2.2 0 5.1l1.1 5.1 18.37 3.3z" fill="#4620AE" fill-rule="nonzero"></path><path d="M104 41.38c1 .12 3.18.7 3.46 3.36.06.54.24 1.07.62 1.47 2.37 2.6 3.6-3.4 3.93-8.9.1-1.3.5-5.7-7-6.5-3.8-.5-5.8 1.1-6.6 2.2-.4.5-.4 1.2 0 1.6l4.9 6.4c.3.3.6.5.9.5zm8.83-1.33l.3-2.53c.02-.17.15-.3.32-.33 1.95-.3 2.5.6 2.25 1.9.04 1.2-1.67 1.3-2.5 1.3-.22 0-.4-.2-.37-.5z" fill="#CE4115" fill-rule="nonzero"></path><path d="M106.24 38.3c.17-.92 1.06-1.54 2-1.37.92.16 1.54 1.05 1.37 1.98" stroke="#4620AE" stroke-width=".82" stroke-linecap="round"></path><g transform="translate(84.575 32.023)"><path d="M17.7 12.32L4.25 10.67c-1.13-.13-1.93-1.16-1.8-2.28l.8-6.4C3.35.8 4.4 0 5.5.2l13.46 1.66c1.12.13 1.93 1.16 1.8 2.28l-.8 6.4c-.13 1.1-1.16 1.92-2.28 1.78z" fill="#FF9BEA" fill-rule="nonzero"></path><g transform="translate(2.053)"><mask id="f" fill="#fff"><path d="M15.65 12.32L2.2 10.67C1.06 10.54.26 9.5.4 8.4L1.18 2C1.32.88 2.35.07 3.48.2l13.45 1.66c1.12.13 1.92 1.16 1.8 2.28l-.8 6.4c-.13 1.1-1.16 1.92-2.28 1.78z"></path></mask><path fill="#91D5FF" fill-rule="nonzero" mask="url(#f)" transform="rotate(6.973 9.634 1.937)" d="M-.35-.37H19.6v4.62H-.34z"></path></g><circle fill="#CC26A1" fill-rule="nonzero" transform="rotate(-83.027 11.616 6.268)" cx="11.62" cy="6.27" r="4.06"></circle><circle fill="#FFC100" fill-rule="nonzero" transform="rotate(-83.027 11.616 6.268)" cx="11.62" cy="6.27" r="3.35"></circle><circle fill="#404040" fill-rule="nonzero" transform="rotate(-83.027 11.616 6.268)" cx="11.62" cy="6.27" r="1.98"></circle><path d="M11.76 5.1c.65.06 1.1.66 1.03 1.3" stroke="#EEE" stroke-width=".5" stroke-linecap="round" stroke-linejoin="round"></path><circle fill="#91D5FF" fill-rule="nonzero" transform="rotate(-83.027 5.45 7.803)" cx="5.45" cy="7.8" r="1"></circle><path d="M18.98 15.4L2 13.3C.87 13.18.07 12.16.2 11.04.36 9.9 1.38 9.1 2.5 9.24l16.98 2.07c1.13.2 1.93 1.2 1.8 2.3-.15 1.2-1.17 2-2.3 1.8z" fill="#FF8983" fill-rule="nonzero"></path><path d="M4.57 12.18l12.22 1.5" stroke="#404040" stroke-width=".82" stroke-linecap="round" stroke-linejoin="round"></path><g transform="translate(1.232 11.496)"><mask id="h" fill="#fff"><path id="g" d="M2.97.2l12.6 1.55-.3 11.72-15.03-2.1z"></path></mask><g mask="url(#h)"><path d="M14.64-.15L5.08-1.7c-.2-.02-.42.12-.45.33L2.8 9.93c-.02.2.1.4.32.44l9.53 1.76c.22.04.42-.1.46-.33L15 .3c.04-.2-.1-.4-.32-.45z" fill="#FFF" fill-rule="nonzero"></path><path fill="#3EA6FF" fill-rule="nonzero" d="M13.8.98L5.53-.35l-1.6 9.83 8.25 1.54"></path><path d="M8.03 8.05c-1.1-.48-1.6-1.53-1.68-2.66C6.28 4.2 7.7-.4 7.7-.4c.26-1.2 1.5-2.37 2.7-2.1 1.2.3 1.95 1.47 1.67 2.67 0 0-1 4.95-1.3 5.33-.3.38-1.17 2.84-2.74 2.5z" fill="#FF534F" fill-rule="nonzero"></path><path d="M9.8.9s-.88 2.33-1.04 3.9" stroke="#D90A17" stroke-width=".62" stroke-linecap="round" stroke-linejoin="round"></path></g></g></g><path d="M85.77 34.3c-3.73 2.27-1.92 6.38-1.92 6.38s1.68 1.06 3.15.9c2.08-.35 1.57-2 1.06-2.5 1.57-.76.44-2.34.44-2.34s1.6-1.43-.54-2.12c-.48-.3-2.2-.3-2.2-.3z" fill="#CE4115" fill-rule="nonzero"></path><g transform="translate(1.232 18.065)"><path d="M12.94 51.66c8.47.07 12.4-8.86 13.6-12.2.22-.7.4-1.38.53-2.1l.28-1.63c.8-4.64 4.04-8.52 8.5-10.1 7.32-2.57 7.8-8.1 7.8-12.18 0-2.7-1.28-11.06-11.05-11.06-7.84 0-9.75 4.6-11.2 9.3-1.4 4.5-1.55 11.4-9.26 12.5-9 1.4-12.68 9.2-11.77 16.1.83 6.3 6.22 11.1 12.57 11.2z" fill="#4620AE" fill-rule="nonzero"></path><g transform="translate(47.625)"><path fill="#FF9BEA" fill-rule="nonzero" d="M8.45 19.94V10.9h3.7l.27 9.5"></path><path d="M4.3 4.34c9.85 3.52 11.97 10.07 12.3 11.4.04.14.02.3-.05.43l-.16.3c-.1.18-.4.27-.6.2-1.7-.56-8.9-3.45-11.6-12.33z" fill="#6F38D4" fill-rule="nonzero"></path><g transform="translate(4.106 4.106)"><mask id="j" fill="#fff"><path d="M.2.24c10.98 3.92 12.35 11.63 12.35 11.63l-.44.8S3.3 10.34.2.25z"></path></mask><path fill="#00D4B5" fill-rule="nonzero" mask="url(#j)" d="M1.12 5.27L5.1 1.3.2-.58"></path></g><path d="M.17.27S7.42.9 5.7 4.77l-.32.45c-.37.5-.9.86-1.53.93C.85 6.5.17.27.17.27z" fill="#CE4115" fill-rule="nonzero"></path><mask id="l" fill="#fff"><path d="M.17.27S7.42.9 5.7 4.77l-.7.98C1 8.05.16.27.16.27z"></path></mask><path d="M.5 4.78c3.33.52 2.47-1.25 1.72-1.56-.6-.83.44-1.4 1.57-.35 1.1 1.06 1.9-1.7 1.9-1.7L.1-3.88l-1.98 5s-1 3.12 2.3 3.65z" fill="#FFC100" fill-rule="nonzero" mask="url(#l)"></path><ellipse fill="#FF9BEA" fill-rule="nonzero" cx="8.21" cy="11.85" rx="1.72" ry="2.04"></ellipse><circle fill="#FF9BEA" fill-rule="nonzero" cx="9.49" cy="6.99" r="1.68"></circle><circle fill="#FF9BEA" fill-rule="nonzero" cx="11.71" cy="8.68" r="1.68"></circle><circle fill="#FF9BEA" fill-rule="nonzero" cx="13.86" cy="10.37" r="1.68"></circle></g><path d="M25.8 50.22c-4.63-5.5-3.36-11.5-2.75-13.48.06-.2.36-.2.42 0l2.6 9.73c0 .1.1.16.2.16h14c.1 0 .2-.1.2-.2l.37-8.97c0-.23.3-.3.42-.1.8 1.57 3.1 4.43 9.28 3.63 11.9-1.1 10.76-19.6 10.58-21.7 0-.1-.1-.2-.2-.2H55.5c-.13 0-.23.1-.22.2.12 1.8.7 13.6-5.9 16.1h-.1c-8.06-.8-3.9-10.7-10.34-10.7h-13.9c-.44 0-.87 0-1.3.2-8.96 2.6-7.8 17.1-7.8 17.1s-.04 6.9 7.2 12.5c6.36 5 8.33 2.2 2.66-4.5z" fill="#F949B4" fill-rule="nonzero"></path><path d="M26.1 46.63s8.83-.82 14.37 0c0 0 11.9 12.22 11.9 38.33 12.53 17-8.1 29.82-8.1 29.82H19.94s-8.92-39.72 6.16-68.15z" fill="#9A4DFF" fill-rule="nonzero"></path><path d="M29.8 21.6v3.78c0 .24.05.48.15.7.28.57.94 1.55 2.26 1.55 1.2 0 1.9-.67 2.4-1.18.3-.32.4-.72.4-1.13l-.1-3.82c0-.87-.7-1.56-1.6-1.56h-1.7c-.9 0-1.6.74-1.6 1.65z" fill="#FF9BEA" fill-rule="nonzero"></path><path d="M39.86 15.98c0-4.03-3.2-7.7-7.5-7.7-4.27 0-7.5 3.67-7.5 7.7s3.37 6.48 7.5 6.48c4.14 0 7.5-2.45 7.5-6.48z" fill="#FF9BEA" fill-rule="nonzero"></path><circle fill="#4620AE" fill-rule="nonzero" cx="29.9" cy="7.26" r="3.33"></circle><circle fill="#4620AE" fill-rule="nonzero" cx="35.01" cy="7.26" r="3.33"></circle><path d="M25 15.48h.55c.68 0 1.23-.55 1.23-1.23v-.54c0-.6-.55-1.2-1.23-1.2H25c-.67 0-1.22.6-1.22 1.3v.6c0 .7.55 1.3 1.23 1.3zm14.18 0h.54c.67 0 1.23-.55 1.23-1.23v-.54c0-.6-.56-1.2-1.23-1.2h-.54c-.68 0-1.24.6-1.24 1.3v.6c0 .7.56 1.3 1.24 1.3z" fill="#FF9BEA" fill-rule="nonzero"></path><path d="M40.06 12.76c-.9-.53-1.36-.73-2.46-.4m-10.68 0c-1.1-.33-1.64-.15-2.46.4" stroke="#FF534F" stroke-width=".82" stroke-linecap="round"></path><g transform="translate(26.276 9.443)"><circle fill="#FFD61D" fill-rule="nonzero" cx="2.89" cy="2.85" r="2.77"></circle><circle fill="#404040" fill-rule="nonzero" cx="2.89" cy="2.85" r="2"></circle><path d="M3.08 1.54c.62 0 1.12.5 1.12 1.12" stroke="#EEE" stroke-width=".5" stroke-linecap="round" stroke-linejoin="round"></path></g><g transform="translate(32.434 9.443)"><circle fill="#FFD61D" fill-rule="nonzero" cx="3.1" cy="2.85" r="2.77"></circle><circle fill="#404040" fill-rule="nonzero" cx="3.1" cy="2.85" r="2"></circle><path d="M3.28 1.54c.62 0 1.13.5 1.13 1.12" stroke="#EEE" stroke-width=".5" stroke-linecap="round" stroke-linejoin="round"></path></g><path d="M28.57 16.25h6.15s.75 4.57-3.07 4.57c-3.83 0-3.08-4.57-3.08-4.57z" fill="#404040" fill-rule="nonzero"></path><g transform="translate(28.328 16.012)"><mask id="n" fill="#fff"><path d="M.24.24H6.4S7.14 4.8 3.32 4.8C-.5 4.8.24.24.24.24z" id="m"></path></mask><ellipse fill="#FF534F" fill-rule="nonzero" mask="url(#n)" cx="3.09" cy="5" rx="2.56" ry="2.1"></ellipse></g></g><path d="M125.25 68.56c.75-2.77-2.43-3.3-3.18-2.92 0 0-4.53 2.18-4.53-.68 0-2.33 2.52-2.86 3.46-2.97.5-.1.95-.3 1.37-.5.92-.6 2-1.8 1.04-4.2-1.2-3.5-2-6.8-2-6.8-1-3.8 2.6-5 3.2-2 .4 2.2.8 4.5 2 7 .2.3.7.2.6-.1 0-2.5-1.6-8.6-1.6-8.6-.1-3.1 2.6-3.3 3.3-1.6 0 0 1.3 7.5 1.4 9.2.2 1.3.9 1.7 1.1-.6 0-1.5.05-5 .5-7 1-2.1 3.3-1.7 3.07.7 0 2.9-.6 6.1-1.1 7.9-.24 1 .9 1.5 1.44.5.3-.6.9-1.7 1.9-3.2 1.96-2.18 3.45-.07 2.03 2.8-2.03 4-5.16 6.6-5.7 11.3v2.6l-7.64.4-.38-1.58z" fill="#FFAE47" fill-rule="nonzero"></path><g transform="translate(29.56 69.795)"><path fill="#FFAE47" fill-rule="nonzero" d="M5.16 13.8h7.4v18.88h-7.4z"></path><path d="M.86 25.3l3.37 3.02c.36.32.9.26 1.2-.12l12.44-16.52c.27-.36.2-.88-.18-1.15L14 7.9c-.36-.27-.86-.2-1.13.16L.74 24.2c-.25.34-.2.82.1 1.1z" fill="#404040" fill-rule="nonzero"></path><circle fill="#67C0FF" fill-rule="nonzero" cx="18.37" cy="6.64" r="6.46"></circle><g transform="translate(11.906)"><mask id="p" fill="#fff"><circle cx="6.46" cy="6.64" r="6.46"></circle></mask><path d="M7.83-1.4L4.55 15.43M9.48-1.4l-3.3 16.83M11.12-1.4l-3.3 16.83M12.76-1.4L9.48 15.43M6.2-1.4L2.9 15.43M4.55-1.4l-3.3 16.83M2.9-1.4L-.37 15.43m-.55-3.63L13.3 2.22m-15.4 8.42l14.24-9.58m-15.4 8.42L11-.1M-4.4 8.32L9.8-1.26M.24 12.96l14.22-9.58M1.4 14.12l14.23-9.58M2.56 15.3l14.22-9.6" mask="url(#p)" stroke="#2F82FF" stroke-width=".5"></path></g><g transform="translate(11.906)"><mask id="r" fill="#fff"><circle cx="6.46" cy="6.64" r="6.46"></circle></mask><path d="M0 .8c1.84 6.25 6.15 10.23 12.43 12.43" stroke="#2F82FF" stroke-width="1.23" mask="url(#r)"></path></g><ellipse fill="#FFAE47" fill-rule="nonzero" cx="12.26" cy="19.36" rx="2.86" ry="3.39"></ellipse><circle fill="#FFAE47" fill-rule="nonzero" cx="3.25" cy="18.42" r="2.86"></circle><circle fill="#FFAE47" fill-rule="nonzero" cx="6.1" cy="14.66" r="2.86"></circle><circle fill="#FFAE47" fill-rule="nonzero" cx="8.98" cy="11.01" r="2.86"></circle></g><path d="M76.03 87.65H76c-.37.05-5.77.62-13.75 1.17-9.2.63-8.9 10.42-8.9 10.42s.84 21.64-4.72 21.5c-7.92-.23-6.04-16.73-5.75-19 .02-.14-.1-.25-.23-.26l-8.47-.12c-.14 0-.25.12-.24.26l1.62 14.43c0 .3.63 13.7 12.04 13.7 6.35-.22 10.47-4.28 11.74-5.73.15-.16.4-.06.4.16l-.1 8.43c0 .2.1.3.23.3h32.1c.13 0 .23-.1.23-.2v-30.5c0-.2.23-.3.38-.2 1.52 1.3 7.57 5.7 17.82 7.1h.02c25.2 2.2 23.68-24.9 23.66-25.2V69.1c0-.13-.1-.24-.24-.24h-8.94c-.14 0-.25.1-.23.2.43 2.8 3.7 26.7-7.64 30.15C105 102.9 94.1 87.8 84.6 88c-3.9.04-8.25-.28-8.57-.3z" fill="#00AEA8" fill-rule="nonzero"></path><path d="M70.34 72.25l-.57 19.38s-.26 3.55 4.18 3.55c3.67 0 5.62.3 6.35-2.5.74-2.8.74-4.85.74-4.85l-5.3-17.23-5.4 1.65z" fill="#FFAE47" fill-rule="nonzero"></path><path d="M69.23 55.6l-9.4 5.98-6.48-4.32-.03-.02c-.27-.2-4.28-3.34-3.03-7.8.4-1.6 1.8-2.74 3.5-2.92 8.2-.85 7.4 11.18 15.4 9.1z" fill="#3EA6FF" fill-rule="nonzero"></path><path d="M85.48 67.38c0 8.06-6.23 14.6-13.9 14.6-7.7 0-13.9-4-13.9-14.6 0-8.05 6.2-14.58 13.9-14.58 7.67 0 13.9 6.53 13.9 14.58z" fill="#FFAE47" fill-rule="nonzero"></path><g transform="translate(57.478 52.55)"><mask id="t" fill="#fff"><path d="M28 14.83c0 8.06-6.22 14.6-13.9 14.6-7.7 0-13.9-4-13.9-14.6C.2 6.77 6.4.25 14.1.25 21.77.25 28 6.78 28 14.83z"></path></mask><path d="M6.2-1.75s-.46 14.83 2.3 15.97c3 1.25 1.97-3.17 4.47-3.42 2.5-.26 1.13 5.07 6.93 2.8 2.9-4.2.88 4.04.88 4.04s.88 6.96 8.5 4.94c7.6-2.02 3.8-4.94 3.8-4.94L6.2-1.76z" fill="#CE4115" fill-rule="nonzero" mask="url(#t)"></path></g><g transform="translate(57.478 52.55)"><mask id="v" fill="#fff"><path d="M28 14.83c0 8.06-6.22 14.6-13.9 14.6-7.7 0-13.9-4-13.9-14.6C.2 6.77 6.4.25 14.1.25 21.77.25 28 6.78 28 14.83z"></path></mask><path fill="#3EA6FF" fill-rule="nonzero" mask="url(#v)" d="M5.06.85l25.66 19 5.34-11L15.33-5.2"></path></g><path d="M73.66 66.93c2-1.1 1.85-3.1 2.68-3.73.83-.63 3.75-.93 4.36.57 1.37 2.57.6 6.26-2.2 6.5-2.76.24-3.6-.55-3.6-.55s-3.36-1.6-1.24-2.8zM60.98 59.9l-3.03-1.95s-2.72-2.12-3.78.83c-1.06 2.96 4.54 5.62 4.54 5.62l2.3-4.5z" fill="#FFAE47" fill-rule="nonzero"></path><path d="M72.3 64.9s.7 1.7 1.83 1.7c.8 0 1.48-2.13 1.48-2.13l-3.3.43z" fill="#CE4115" fill-rule="nonzero"></path><path d="M61.17 68.96l9.43.24c.15 0 .27.12.3.27.22 1.5 1.2 9.1-2.46 9.34-8.6.3-7.82-7.9-7.58-9.5 0-.1.15-.2.3-.2z" fill="#404040" fill-rule="nonzero"></path><g transform="translate(60.352 68.563)"><mask id="x" fill="#fff"><path d="M.55.4l9.95.24s1.64 9.34-2.4 9.6C-1.47 10.54.54.4.54.4z"></path></mask><path d="M5.6 6.65c-.47-.7-3.16-2.05-3.88.94-.56 1.3-.04 5.9 3.08 5.7 3.13-.3 5.65-1.3 5.65-1.3s.66-1.4.38-4.5c.07-2-3.92-3.1-5.23-1z" fill="#FF534F" fill-rule="nonzero" mask="url(#x)"></path></g><path d="M8.77 29.37s-.24-1.16.8-1.8c1.13-.87 1.08-2.34 1.95-2.75 1.58-.52 1.05 2.05.5 3.08l2.6-.3s1.6-.38 1.37.85l-.9 4.28c-.1.46-.5.82-1 .87l-3.9.46c-1.3.22-1.2-1.3-1.2-1.3-.2-1.15-.2-1.96-.4-3.4zm-2.55-.34l.84-.12c.3 0 .6.2.64.5 0 1.8.3 3.1.62 4.4.04.3-.16.6-.45.6l-.73.1c-.3.1-.57-.1-.62-.4-.4-1.4-.76-2.8-.72-4.4-.04-.2.15-.5.42-.5zm122.16-7.37s.3-1.15 1.5-1.27c1.42-.3 2.03-1.6 3-1.6 1.63.2 0 2.3-.94 3l2.47.8s1.7.4.9 1.4l-2.6 3.4c-.3.3-.8.5-1.2.3l-3.6-1.3c-1.2-.4-.4-1.7-.4-1.7.4-1.2.7-1.9 1.2-3.3zm-2.13-1.44l.8.28c.3.1.46.42.36.72-.7 1.54-1 2.86-1.3 4.18-.1.28-.4.42-.6.34l-.7-.23c-.3 0-.4-.3-.3-.6.3-1.4.6-2.9 1.4-4.3.1-.2.4-.4.6-.3z" fill="#3EA6FF" fill-rule="nonzero"></path><g transform="translate(72.258 20.117)" fill="#F00" fill-rule="nonzero"><circle transform="rotate(-73.896 3.604 3.577)" cx="3.6" cy="3.58" r="2.8"></circle><circle transform="rotate(-73.896 8.125 4.88)" cx="8.12" cy="4.88" r="2.8"></circle><path d="M.98 2.8C.2 3.86 2.48 7.84 3.9 11c3.18-2 7.14-4.26 6.85-5.37L.98 2.8z"></path></g></g><path d="M125.25 68.56c.75-2.77-2.43-3.3-3.18-2.92 0 0-4.53 2.18-4.53-.68 0-2.33 2.52-2.86 3.46-2.97.5-.1.95-.3 1.37-.5.92-.6 2-1.8 1.04-4.2-1.2-3.5-2-6.8-2-6.8-1-3.8 2.6-5 3.2-2 .4 2.2.8 4.5 2 7 .2.3.7.2.6-.1 0-2.5-1.6-8.6-1.6-8.6-.1-3.1 2.6-3.3 3.3-1.6 0 0 1.3 7.5 1.4 9.2.2 1.3.9 1.7 1.1-.6 0-1.5.05-5 .5-7 1-2.1 3.3-1.7 3.07.7 0 2.9-.6 6.1-1.1 7.9-.24 1 .9 1.5 1.44.5.3-.6.9-1.7 1.9-3.2 1.96-2.18 3.45-.07 2.03 2.8-2.03 4-5.16 6.6-5.7 11.3v2.6l-7.64.4-.38-1.58z" fill="#FFAE47" fill-rule="nonzero"></path><path d="M62.24 88.82c-9.2.63-8.88 10.42-8.88 10.42s.82 21.64-4.73 21.5c-7.93-.23-6.05-16.73-5.75-19 .02-.14-.1-.25-.23-.26l-8.48-.12c-.13 0-.25.12-.23.26l1.6 14.43c.03.3.65 13.7 12.05 13.7 6.3-.22 10.4-4.28 11.7-5.73.1-.16.4-.06.4.16m32.4-22.03c0-.2.2-.3.3-.18 1.5 1.24 7.5 5.68 17.8 7.12 25.2 2.1 23.7-24.9 23.6-25.3V69c0-.13-.1-.24-.3-.24h-8.97c-.1 0-.23.1-.2.23.42 2.8 3.7 26.7-7.65 30.1-11.9 3.8-22.8-11.3-32.3-11.2" fill="#00AEA8" fill-rule="nonzero"></path><g transform="translate(10.674 10.674)"><mask id="z" fill="#fff"><circle cx="59.77" cy="59.77" r="59.77"></circle></mask><path d="M49.1 122.58c-.18 0-.32-.2-.3-.36l.4-30.46c0-.16.14-.38.3-.38.18 0 .32.2.3.36l-.4 30.46c0 .17-.14.38-.3.38z" fill="#008596" fill-rule="nonzero" mask="url(#z)"></path></g></g></svg>